<svg width="224" height="180" viewBox="0 0 224 180" fill="none" xmlns="http://www.w3.org/2000/svg">
<rect x="40" y="54.1431" width="133.179" height="96.8571" fill="#B7B7B7"/>
<rect x="46.0537" y="60.6978" width="121.071" height="84.2485" fill="white"/>
<rect x="46.0537" y="60.1963" width="121.071" height="16.1429" fill="#E4E4E4"/>
<rect x="70.2681" y="118.714" width="68.6071" height="6.05357" fill="#E4E4E4"/>
<rect x="70.2681" y="130.821" width="34.3036" height="6.05357" fill="#E4E4E4"/>
<path d="M159.053 98.5359L173.178 84.4109V54.1431H131.037C115.276 62.6751 104.571 79.3554 104.571 98.5359H159.053Z" fill="white"/>
<rect x="70.2681" y="84.4106" width="68.6071" height="28.25" fill="#E2E2E2"/>
<path d="M166.818 65.8016H155.707C146.57 65.8016 137.807 69.4629 131.346 75.9802C124.886 82.4975 121.256 91.3368 121.256 100.554H112.643C112.665 89.0331 117.182 77.9845 125.218 69.7981C129.223 65.7648 133.978 62.5682 139.21 60.3916C144.441 58.215 150.048 57.101 155.707 57.1136H166.818L153.898 44.0816L160.013 38L183.268 61.4576L160.013 85.0021L153.898 78.8336L166.818 65.8016Z" fill="#AEAEAE"/>
</svg>
