<svg width="224" height="180" viewBox="0 0 224 180" fill="none" xmlns="http://www.w3.org/2000/svg">
<rect width="224" height="180" fill="white"/>
<circle cx="165.756" cy="78.9806" r="24.2443" fill="#EBEBEB"/>
<path fill-rule="evenodd" clip-rule="evenodd" d="M180.304 70.2949C179.436 70.683 178.488 70.8607 177.537 70.8138C178.13 70.4733 178.634 69.9987 179.009 69.428C179.385 68.8573 179.621 68.2065 179.699 67.5278C178.501 68.2863 177.187 68.8414 175.808 69.1708C175.289 68.0467 174.165 66.5767 170.793 66.9226C165.172 67.4414 165.172 72.9755 165.777 74.6185C163.295 74.4586 160.872 73.7932 158.656 72.6631C156.441 71.533 154.48 69.9621 152.893 68.0467C151.164 71.8514 152.893 75.2238 154.536 76.2615C153.749 76.3509 152.956 76.1678 152.288 75.7426C152.288 75.7426 151.682 80.6715 157.303 81.1903C156.778 81.4464 156.201 81.5794 155.617 81.5794C155.033 81.5794 154.456 81.4464 153.931 81.1903C154.449 83.4386 156.698 86.1192 160.07 85.6004C157.303 87.8486 154.536 88.3674 151.164 88.3674C154.006 90.1776 157.306 91.1377 160.675 91.1345C171.917 91.1345 177.451 82.055 177.451 74.0997C177.451 73.97 177.472 73.7754 177.494 73.5808C177.516 73.3863 177.537 73.1917 177.537 73.062C178.756 72.4927 179.735 71.5133 180.304 70.2949Z" fill="#ADADAD"/>
<circle cx="111.448" cy="44.069" r="24.2443" fill="#EBEBEB"/>
<path fill-rule="evenodd" clip-rule="evenodd" d="M115.739 34.372H118.648V29.7174C117.291 29.6204 115.836 29.5234 114.478 29.5234C110.503 29.5234 107.981 31.8508 107.981 36.3114V40.1903H103.133V45.0389H107.981V58.6149H112.83V45.0389H117.679L118.648 40.1903H112.83V36.8933C112.83 35.4387 113.606 34.372 115.739 34.372Z" fill="#ADADAD"/>
<circle cx="57.6696" cy="78.9806" r="24.2443" fill="#EBEBEB"/>
<g clip-path="url(#clip0)">
<mask id="mask0" mask-type="alpha" maskUnits="userSpaceOnUse" x="43" y="64" width="30" height="30">
<path d="M43.1211 64.4424H72.2051V93.5229H43.1211V64.4424Z" fill="#ADADAD"/>
</mask>
<g mask="url(#mask0)">
<path fill-rule="evenodd" clip-rule="evenodd" d="M57.6631 64.4424C53.7137 64.4424 53.2185 64.4591 51.6674 64.5299C50.1196 64.6005 49.0625 64.8463 48.1375 65.2058C47.1813 65.5774 46.3703 66.0747 45.5618 66.8831C44.7534 67.6916 44.2561 68.5026 43.8846 69.4588C43.525 70.3838 43.2792 71.4409 43.2086 72.9887C43.1378 74.5398 43.1211 75.035 43.1211 78.9844C43.1211 82.9337 43.1378 83.429 43.2086 84.98C43.2792 86.5278 43.525 87.585 43.8846 88.5099C44.2561 89.4662 44.7534 90.2772 45.5618 91.0857C46.3703 91.8941 47.1813 92.3913 48.1375 92.763C49.0625 93.1224 50.1196 93.3683 51.6674 93.4389C53.2185 93.5096 53.7137 93.5264 57.6631 93.5264C61.6125 93.5264 62.1077 93.5096 63.6587 93.4389C65.2066 93.3683 66.2637 93.1224 67.1886 92.763C68.1449 92.3913 68.9559 91.8941 69.7644 91.0857C70.5728 90.2772 71.07 89.4662 71.4417 88.5099C71.8011 87.585 72.047 86.5278 72.1176 84.98C72.1883 83.429 72.2051 82.9337 72.2051 78.9844C72.2051 75.035 72.1883 74.5398 72.1176 72.9887C72.047 71.4409 71.8011 70.3838 71.4417 69.4588C71.07 68.5026 70.5728 67.6916 69.7644 66.8831C68.9559 66.0747 68.1449 65.5774 67.1886 65.2058C66.2637 64.8463 65.2066 64.6005 63.6587 64.5299C62.1077 64.4591 61.6125 64.4424 57.6631 64.4424ZM57.6631 67.0626C61.546 67.0626 62.0059 67.0774 63.5393 67.1474C64.9571 67.212 65.7271 67.4489 66.2395 67.6481C66.9183 67.9119 67.4027 68.227 67.9116 68.7359C68.4205 69.2447 68.7356 69.7291 68.9994 70.4079C69.1986 70.9203 69.4355 71.6903 69.5001 73.1082C69.5701 74.6416 69.5849 75.1015 69.5849 78.9844C69.5849 82.8672 69.5701 83.3272 69.5001 84.8606C69.4355 86.2784 69.1986 87.0484 68.9994 87.5608C68.7356 88.2396 68.4205 88.724 67.9116 89.2329C67.4027 89.7418 66.9183 90.0569 66.2395 90.3207C65.7271 90.5198 64.9571 90.7567 63.5393 90.8214C62.0061 90.8914 61.5462 90.9062 57.6631 90.9062C53.7799 90.9062 53.3201 90.8914 51.7869 90.8214C50.369 90.7567 49.5991 90.5198 49.0866 90.3207C48.4079 90.0569 47.9234 89.7418 47.4146 89.2329C46.9057 88.724 46.5906 88.2396 46.3268 87.5608C46.1276 87.0484 45.8907 86.2784 45.8261 84.8606C45.7561 83.3272 45.7413 82.8672 45.7413 78.9844C45.7413 75.1015 45.7561 74.6416 45.8261 73.1082C45.8907 71.6903 46.1276 70.9203 46.3268 70.4079C46.5906 69.7291 46.9057 69.2447 47.4146 68.7359C47.9234 68.227 48.4079 67.9119 49.0866 67.6481C49.5991 67.4489 50.369 67.212 51.7869 67.1474C53.3203 67.0774 53.7802 67.0626 57.6631 67.0626Z" fill="#ADADAD"/>
</g>
<path fill-rule="evenodd" clip-rule="evenodd" d="M57.6633 83.8329C54.9862 83.8329 52.816 81.6627 52.816 78.9856C52.816 76.3085 54.9862 74.1382 57.6633 74.1382C60.3404 74.1382 62.5106 76.3085 62.5106 78.9856C62.5106 81.6627 60.3404 83.8329 57.6633 83.8329ZM57.6633 71.5181C53.5391 71.5181 50.1958 74.8614 50.1958 78.9856C50.1958 83.1098 53.5391 86.4531 57.6633 86.4531C61.7875 86.4531 65.1308 83.1098 65.1308 78.9856C65.1308 74.8614 61.7875 71.5181 57.6633 71.5181Z" fill="#ADADAD"/>
<path fill-rule="evenodd" clip-rule="evenodd" d="M67.1707 71.2231C67.1707 72.1869 66.3894 72.9681 65.4257 72.9681C64.462 72.9681 63.6807 72.1869 63.6807 71.2231C63.6807 70.2593 64.462 69.478 65.4257 69.478C66.3894 69.478 67.1707 70.2593 67.1707 71.2231Z" fill="#ADADAD"/>
</g>
<path d="M110.479 89.4727C100.705 89.4727 91.3319 93.3554 84.4209 100.266C77.51 107.177 73.6274 116.55 73.6274 126.324C73.6274 136.098 77.51 145.471 84.4209 152.382C91.3319 159.293 100.705 163.175 110.479 163.175C120.252 163.175 129.626 159.293 136.537 152.382C143.448 145.471 147.33 136.098 147.33 126.324C147.33 116.55 143.448 107.177 136.537 100.266C129.626 93.3554 120.252 89.4727 110.479 89.4727V89.4727ZM105.214 105.266H115.743V121.06H131.537V131.588H115.743V147.382H105.214V131.588H89.4209V121.06H105.214V105.266Z" fill="#B9B9B9"/>
<defs>
<clipPath id="clip0">
<rect width="29.0932" height="29.0932" fill="white" transform="translate(43.1211 64.4341)"/>
</clipPath>
</defs>
</svg>
